# xmcd
#
# Track frame offsets: 
#        150
#        18524
#        35888
#        52616
#        70156
#        83755
#        98565
#        115991
#        130835
#        151500
#        166622
#        180493
#
# Disc length: 2597 seconds
#
# Revision: 0
# Processed by: cddbd v1.5.2PL0 Copyright (c) Steve Scherf et al.
# Submitted via: ExactAudioCopy v1.1
#
DISCID=830a230c
DTITLE=Shemekia Copeland - Outskirts Of Love
DYEAR=2015
DGENRE=Blues
TTITLE0=Outskirts Of Love
TTITLE1=Crossbone Beach
TTITLE2=DevilХs Hand
TTITLE3=The Battle is Over (But The War Goes On)
TTITLE4=Cardboard Box
TTITLE5=DrivinХ Out Of Nashville
TTITLE6=I Feel A Sin Coming On
TTITLE7=IsnХt That So
TTITLE8=Jesus Just Left Chicago
TTITLE9=Long As I Can See The Light
TTITLE10=Wrapped Up In Love Again
TTITLE11=Lord, Help The Poor And Needy
EXTD=
EXTT0=
EXTT1=
EXTT2=
EXTT3=
EXTT4=
EXTT5=
EXTT6=
EXTT7=
EXTT8=
EXTT9=
EXTT10=
EXTT11=
PLAYORDER=
